<?xml version="1.0" encoding="utf-8"?>
<!-- Generator: Adobe Illustrator 16.0.0, SVG Export Plug-In . SVG Version: 6.00 Build 0)  -->
<!DOCTYPE svg PUBLIC "-//W3C//DTD SVG 1.1//EN" "http://www.w3.org/Graphics/SVG/1.1/DTD/svg11.dtd">
<svg version="1.1" id="Layer_1" xmlns="http://www.w3.org/2000/svg" xmlns:xlink="http://www.w3.org/1999/xlink" x="0px" y="0px"
	 width="2380.49px" height="2431.021px" viewBox="0 0 2380.49 2431.021" enable-background="new 0 0 2380.49 2431.021"
	 xml:space="preserve">
<g>
	<polygon fill="#A12625" points="382.192,1620.194 1200.394,203.034 2018.587,1620.194 	"/>
	<g>
		<line x1="1199.673" y1="898.617" x2="1200.394" y2="177.034"/>
	</g>
	<g>
		<polygon fill="none" stroke="#A12625" stroke-width="48" points="1077.892,389.209 1200.394,177.034 1322.892,389.209 		"/>
		<polygon fill="#FFFFFF" points="1077.892,389.209 1200.394,177.034 1322.892,389.209 		"/>
	</g>
	<g>
		<polygon fill="none" stroke="#A12625" stroke-width="48" points="347.364,1635.123 469.866,1422.947 592.364,1635.123 		"/>
		<polygon fill="#FFFFFF" points="347.364,1635.123 469.866,1422.947 592.364,1635.123 		"/>
	</g>
	<g>
		<polygon fill="none" stroke="#A12625" stroke-width="48" points="1813.138,1635.087 1935.64,1422.911 2058.138,1635.087 		"/>
		<polygon fill="#FFFFFF" points="1813.138,1635.087 1935.64,1422.911 2058.138,1635.087 		"/>
	</g>
	<polygon fill="#FFFFFF" stroke="#A42539" stroke-miterlimit="10" points="1024.352,1239.277 1199.673,935.618 1374.991,1239.277 	
		"/>
</g>
<polygon fill="#FFFFFF" points="1201.004,968.021 1218.004,968.021 1199.671,301.021 1180.965,968.021 "/>
<polygon fill="#FFFFFF" points="1344.905,1222.925 1336.405,1237.647 1923.211,1555.271 1354.925,1205.57 "/>
<polygon fill="#FFFFFF" points="1053.544,1220.455 1045.044,1205.732 476.571,1555.109 1063.563,1237.81 "/>
<g>
	<path fill="#FFFFFF" d="M395.432,1935.863c0-15.24-0.636-32.386-5.08-45.721c-4.445-12.7-11.431-21.59-22.226-21.59
		c-17.78,0.635-23.495,19.05-23.495,46.356c0,15.875,6.984,32.385,17.145,50.166s23.496,36.196,36.831,55.881
		c15.875,23.496,31.75,47.625,43.815,71.121s20.32,47.625,20.32,73.026c0,31.116-5.08,60.326-19.686,81.917
		c-14.604,21.59-38.101,35.561-75.565,35.561c-43.816,0-68.581-16.51-82.552-41.911c-13.97-25.4-17.146-59.056-17.146-93.981
		l67.312-6.35c0,19.685,0.635,39.371,5.715,53.976c4.445,15.24,12.065,25.4,26.671,25.4c20.32,0,27.94-21.591,27.94-51.436
		c0-15.24-7.62-33.021-17.78-51.436c-5.716-8.89-11.431-18.415-17.78-27.94c-13.336-19.05-27.94-40.641-43.181-64.136
		s-26.671-47.626-33.656-72.391c-3.81-12.065-5.715-24.765-5.715-37.465c0-25.4,5.715-52.706,20.32-73.661
		c14.605-20.32,36.831-34.926,69.216-35.561c41.276-0.635,65.406,16.51,78.741,41.275c13.336,25.4,17.146,56.516,17.146,82.551
		L395.432,1935.863z"/>
	<path fill="#FFFFFF" d="M624.028,1810.767h66.676l-71.121,466.732h-68.581l-71.121-466.732h66.676l34.291,256.544l2.54,19.685h3.81
		l2.54-19.685L624.028,1810.767z"/>
	<path fill="#FFFFFF" d="M721.815,1810.767h68.581v466.732h-68.581V1810.767z"/>
	<path fill="#FFFFFF" d="M1011.369,2034.29l-5.715-21.591h-3.81v264.799h-62.866v-466.732h60.961l66.676,243.208l5.715,21.59h3.811
		v-264.799h62.866v466.732h-60.961L1011.369,2034.29z"/>
	<path fill="#FFFFFF" d="M1170.752,2277.499l70.486-466.732h83.821l70.485,466.732h-66.676l-12.7-95.251h-66.041l-12.7,95.251
		H1170.752z M1286.959,1962.534l-1.905-12.065h-3.811l-1.904,12.065l-19.686,147.322h46.99L1286.959,1962.534z"/>
	<path fill="#FFFFFF" d="M1647.637,2277.499l-35.561-196.853h-18.415v196.853h-68.581v-466.732h68.581
		c81.916,0,116.842,46.355,116.842,134.622c0,46.355-12.065,88.266-38.101,106.046l43.815,226.063H1647.637z M1593.661,2017.145
		c9.525,0,22.226-1.27,32.386-10.16s18.415-26.035,18.415-59.056s-8.255-50.801-18.415-59.691c-10.16-8.89-22.86-9.525-32.386-9.525
		V2017.145z"/>
	<path fill="#FFFFFF" d="M1735.266,2277.499l70.486-466.732h83.821l70.485,466.732h-66.676l-12.7-95.251h-66.041l-12.7,95.251
		H1735.266z M1851.473,1962.534l-1.905-12.065h-3.811l-1.904,12.065l-19.686,147.322h46.99L1851.473,1962.534z"/>
	<path fill="#FFFFFF" d="M1991.807,2277.499v-466.732h53.976c63.501,0,97.792,12.7,116.207,48.261
		c17.78,35.561,20.32,93.981,20.32,185.423s-2.54,149.227-20.32,184.788c-18.415,35.561-52.706,48.261-116.207,48.261H1991.807z
		 M2060.388,2208.917c23.495,0,36.83-2.54,43.815-25.4c3.175-10.795,5.715-27.305,6.351-49.531
		c0.635-22.226,0.635-52.071,0.635-90.172c0-38.101,0-67.946-0.635-90.172c-0.636-21.589-3.176-38.1-6.351-49.53
		c-6.985-22.225-20.32-24.765-43.815-24.765V2208.917z"/>
</g>
</svg>
