<?xml version="1.0" encoding="utf-8"?>
<!-- Generator: Adobe Illustrator 16.0.0, SVG Export Plug-In . SVG Version: 6.00 Build 0)  -->
<!DOCTYPE svg PUBLIC "-//W3C//DTD SVG 1.1//EN" "http://www.w3.org/Graphics/SVG/1.1/DTD/svg11.dtd">
<svg version="1.1" id="Layer_1" xmlns="http://www.w3.org/2000/svg" xmlns:xlink="http://www.w3.org/1999/xlink" x="0px" y="0px"
	 width="2380.49px" height="1788.715px" viewBox="0 0 2380.49 1788.715" enable-background="new 0 0 2380.49 1788.715"
	 xml:space="preserve">
<g>
	<polygon fill="#A12625" points="382.192,1620.194 1200.394,203.034 2018.587,1620.194 	"/>
	<g>
		<line x1="1199.673" y1="898.617" x2="1200.394" y2="177.034"/>
	</g>
	<g>
		<polygon fill="none" stroke="#A12625" stroke-width="48" points="1077.892,389.209 1200.394,177.034 1322.892,389.209 		"/>
		<polygon fill="#FFFFFF" points="1077.892,389.209 1200.394,177.034 1322.892,389.209 		"/>
	</g>
	<g>
		<polygon fill="none" stroke="#A12625" stroke-width="48" points="347.364,1635.123 469.866,1422.947 592.364,1635.123 		"/>
		<polygon fill="#FFFFFF" points="347.364,1635.123 469.866,1422.947 592.364,1635.123 		"/>
	</g>
	<g>
		<polygon fill="none" stroke="#A12625" stroke-width="48" points="1813.138,1635.087 1935.64,1422.911 2058.138,1635.087 		"/>
		<polygon fill="#FFFFFF" points="1813.138,1635.087 1935.64,1422.911 2058.138,1635.087 		"/>
	</g>
	<polygon fill="#FFFFFF" stroke="#A42539" stroke-miterlimit="10" points="1024.352,1239.277 1199.673,935.618 1374.991,1239.277 	
		"/>
</g>
<polygon fill="#FFFFFF" points="1201.004,968.021 1218.004,968.021 1199.671,301.021 1180.965,968.021 "/>
<polygon fill="#FFFFFF" points="1344.905,1222.925 1336.405,1237.647 1923.211,1555.271 1354.925,1205.57 "/>
<polygon fill="#FFFFFF" points="1053.544,1220.455 1045.044,1205.732 476.571,1555.109 1063.563,1237.81 "/>
<text transform="matrix(1 0 0 1 808.3643 2769.4102)" fill="#A12625" font-family="'LeagueGothic-Regular'" font-size="436.6404">SVI NA RAD</text>
</svg>
